 [IMG]http://i.imgur.com/gFpRD.jpg[/IMG]
[code]
Journey 2 The Mysterious Island 2012 TS XViD AC3-26K

Imdb: 
http://www.imdb.com/title/tt1397514/

Plot:
Sean Anderson partners with his mom's boyfriend on a mission to find his 

grandfather, who is thought to be missing on a mythical island.

Sources:
VIDEO-INSPIRAL/26K
AUDIO-TAPE!

Notes:
ENJOY ADDED A FEW FILTERS TO THE VIDEO !
THE VIDEO WAS ENCODED BADLY BY ME HCNE EVERYOEN ELSE HAD THE REPEATED PARTS INT HE 

VIDEO!! FIXED THAT NOW ONLY LASTED FOR THE FIRST 13 MINZ!
AS FOR THE LINE VERY GOOD!!! TAPE THNXS ! 

OTHER THAN THAT TAKE IT OR LEAVE IT!...

Greetz:
Xtreme 

Encode|FYA|ILLUMANTI|CM8|RX|VISION|HDSCENE|NIGHTMAREZ|xTriLL|DTRG|CRYS|REMIXHD|BID

A|RX|REFILL|INSPiRAL|SIC|ZOMBIESZ|HOPE|Anonymous|GooN
To all the people who have helped me :P you know who you are

Anything to offer email us @: 26k@hushmail.me

Video
ID                                       : 0
Format                                   : MPEG-4 Visual
Format profile                           : Advanced Simple@L5
Format settings, BVOP                    : 2
Format settings, QPel                    : No
Format settings, GMC                     : No warppoints
Format settings, Matrix                  : Default (H.263)
Codec ID                                 : XVID
Codec ID/Hint                            : XviD
Duration                                 : 1h 25mn
Bit rate                                 : 1 600 Kbps
Width                                    : 640 pixels
Height                                   : 352 pixels
Display aspect ratio                     : 16:9
Frame rate                               : 25.000 fps
Color space                              : YUV
Chroma subsampling                       : 4:2:0
Bit depth                                : 8 bits
Scan type                                : Progressive
Compression mode                         : Lossy
Bits/(Pixel*Frame)                       : 0.284
Stream size                              : 978 MiB (87%)
Writing library                          : XviD 64

Audio
ID                                       : 1
Format                                   : AC-3
Format/Info                              : Audio Coding 3
Mode extension                           : CM (complete main)
Codec ID                                 : 2000
Duration                                 : 1h 25mn
Bit rate mode                            : Constant
Bit rate                                 : 224 Kbps
Channel(s)                               : 2 channels
Channel positions                        : Front: L R
Sampling rate                            : 44.1 KHz
Bit depth                                : 16 bits
Compression mode                         : Lossy
Delay relative to video                  : 200ms
Stream size                              : 137 MiB (12%)
Alignment                                : Split accross interleaves
Interleave, duration                     : 9360 ms (234.00 video frames)

[/code]
Screens:
[IMG]http://i.imgur.com/O7Xg2.png[/IMG]
[IMG]http://i.imgur.com/e43PF.png[/IMG]
[IMG]http://i.imgur.com/iXnL7.png[/IMG]
[IMG]http://i.imgur.com/FzTEf.png[/IMG]
[IMG]http://i.imgur.com/q3dNc.png[/IMG]
[IMG]http://i.imgur.com/ewAir.png[/IMG]
[IMG]http://i.imgur.com/TNpT6.png[/IMG]

[img]http://img851.imageshack.us/img851/5503/26ks.jpg[/img]
Thank you smallz for banner! 